REM DIRINDEX 1\6,1\2\7,1\2\8,1\2\9,1\3\10,1\3\11,1\4\12,1\4\13,1\4\14,1\5\15,1\5\16,1\5\17
REM DIRNAME folder01,folder02,folder03,folder04,folder05,folder06,folder07,folder08,folder09,folder10,folder11,folder12,folder13,folder14,folder15,folder16,folder17
TITLE ""
FILE "P2Q_j_1156-1169.mp3" MP3
  TRACK 01 AUDIO
    TITLE "12:cjc040_0212"
    INDEX 01 00:00:00
  TRACK 02 AUDIO
    TITLE "0:"
    INDEX 01 00:01:34
  TRACK 03 AUDIO
    TITLE "13:cjc040_0213"
    INDEX 01 00:02:26
  TRACK 04 AUDIO
    TITLE "0:"
    INDEX 01 00:03:27
  TRACK 05 AUDIO
    TITLE "14:cjc040_0214"
    INDEX 01 00:04:09
  TRACK 06 AUDIO
    TITLE "0:"
    INDEX 01 00:08:46
  TRACK 07 AUDIO
    TITLE "12:cjc040_0215"
    INDEX 01 00:09:36
  TRACK 08 AUDIO
    TITLE "0:"
    INDEX 01 00:10:51
  TRACK 09 AUDIO
    TITLE "13:cjc040_0216"
    INDEX 01 00:11:39
  TRACK 10 AUDIO
    TITLE "0:"
    INDEX 01 00:15:25
  TRACK 11 AUDIO
    TITLE "14:cjc040_0217"
    INDEX 01 00:16:02
  TRACK 12 AUDIO
    TITLE "0:"
    INDEX 01 00:21:37
  TRACK 13 AUDIO
    TITLE "12:cjc040_0218"
    INDEX 01 00:22:15
  TRACK 14 AUDIO
    TITLE "0:"
    INDEX 01 00:23:48
  TRACK 15 AUDIO
    TITLE "13:cjc040_0219"
    INDEX 01 00:24:27
  TRACK 16 AUDIO
    TITLE "0:"
    INDEX 01 00:26:22
  TRACK 17 AUDIO
    TITLE "14:cjc040_0220"
    INDEX 01 00:26:67
  TRACK 18 AUDIO
    TITLE "0:"
    INDEX 01 00:32:15
  TRACK 19 AUDIO
    TITLE "12:cjc040_0221"
    INDEX 01 00:33:03
  TRACK 20 AUDIO
    TITLE "0:"
    INDEX 01 00:34:43
  TRACK 21 AUDIO
    TITLE "13:cjc040_0222"
    INDEX 01 00:35:15
  TRACK 22 AUDIO
    TITLE "0:"
    INDEX 01 00:36:66
  TRACK 23 AUDIO
    TITLE "14:cjc040_0223"
    INDEX 01 00:37:44
  TRACK 24 AUDIO
    TITLE "0:"
    INDEX 01 00:42:70
  TRACK 25 AUDIO
    TITLE "12:cjc040_0224"
    INDEX 01 00:43:50
  TRACK 26 AUDIO
    TITLE "0:"
    INDEX 01 00:45:10
  TRACK 27 AUDIO
    TITLE "13:cjc040_0225"
    INDEX 01 00:45:65
  TRACK 28 AUDIO
    TITLE "0:"
    INDEX 01 00:47:01
  TRACK 29 AUDIO
    TITLE "14:cjc040_0226"
    INDEX 01 00:47:54
  TRACK 30 AUDIO
    TITLE "0:"
    INDEX 01 00:51:67
  TRACK 31 AUDIO
    TITLE "12:cjc040_0227"
    INDEX 01 00:52:51
  TRACK 32 AUDIO
    TITLE "0:"
    INDEX 01 00:54:01
  TRACK 33 AUDIO
    TITLE "13:cjc040_0228"
    INDEX 01 00:54:62
  TRACK 34 AUDIO
    TITLE "0:"
    INDEX 01 00:55:73
  TRACK 35 AUDIO
    TITLE "14:cjc040_0229"
    INDEX 01 00:56:51
  TRACK 36 AUDIO
    TITLE "0:"
    INDEX 01 01:01:38
  TRACK 37 AUDIO
    TITLE "12:cjc040_0230"
    INDEX 01 01:02:16
  TRACK 38 AUDIO
    TITLE "0:"
    INDEX 01 01:03:55
  TRACK 39 AUDIO
    TITLE "13:cjc040_0231"
    INDEX 01 01:04:37
  TRACK 40 AUDIO
    TITLE "0:"
    INDEX 01 01:05:48
  TRACK 41 AUDIO
    TITLE "14:cjc040_0232"
    INDEX 01 01:06:28
  TRACK 42 AUDIO
    TITLE "0:"
    INDEX 01 01:13:45
  TRACK 43 AUDIO
    TITLE "12:cjc040_0233"
    INDEX 01 01:14:27
  TRACK 44 AUDIO
    TITLE "0:"
    INDEX 01 01:16:07
  TRACK 45 AUDIO
    TITLE "13:cjc040_0234"
    INDEX 01 01:16:67
  TRACK 46 AUDIO
    TITLE "0:"
    INDEX 01 01:18:07
  TRACK 47 AUDIO
    TITLE "14:cjc040_0235"
    INDEX 01 01:18:64
  TRACK 48 AUDIO
    TITLE "0:"
    INDEX 01 01:25:55
  TRACK 49 AUDIO
    TITLE "12:cjc040_0236"
    INDEX 01 01:26:32
  TRACK 50 AUDIO
    TITLE "0:"
    INDEX 01 01:28:57
  TRACK 51 AUDIO
    TITLE "13:cjc040_0237"
    INDEX 01 01:29:39
  TRACK 52 AUDIO
    TITLE "0:"
    INDEX 01 01:31:49
  TRACK 53 AUDIO
    TITLE "14:cjc040_0238"
    INDEX 01 01:32:31
  TRACK 54 AUDIO
    TITLE "0:"
    INDEX 01 01:37:48
  TRACK 55 AUDIO
    TITLE "12:cjc040_0239"
    INDEX 01 01:38:28
  TRACK 56 AUDIO
    TITLE "0:"
    INDEX 01 01:40:25
  TRACK 57 AUDIO
    TITLE "13:cjc040_0240"
    INDEX 01 01:41:05
  TRACK 58 AUDIO
    TITLE "0:"
    INDEX 01 01:43:13
  TRACK 59 AUDIO
    TITLE "14:cjc040_0241"
    INDEX 01 01:43:66
  TRACK 60 AUDIO
    TITLE "0:"
    INDEX 01 01:47:50
  TRACK 61 AUDIO
    TITLE "12:cjc040_0242"
    INDEX 01 01:48:34
  TRACK 62 AUDIO
    TITLE "0:"
    INDEX 01 01:50:21
  TRACK 63 AUDIO
    TITLE "13:cjc040_0243"
    INDEX 01 01:51:07
  TRACK 64 AUDIO
    TITLE "0:"
    INDEX 01 01:53:29
  TRACK 65 AUDIO
    TITLE "14:cjc040_0244"
    INDEX 01 01:54:03
  TRACK 66 AUDIO
    TITLE "0:"
    INDEX 01 02:00:63
  TRACK 67 AUDIO
    TITLE "12:cjc040_0245"
    INDEX 01 02:01:41
  TRACK 68 AUDIO
    TITLE "0:"
    INDEX 01 02:02:66
  TRACK 69 AUDIO
    TITLE "13:cjc040_0246"
    INDEX 01 02:03:43
  TRACK 70 AUDIO
    TITLE "0:"
    INDEX 01 02:04:55
  TRACK 71 AUDIO
    TITLE "14:cjc040_0247"
    INDEX 01 02:05:33
  TRACK 72 AUDIO
    TITLE "0:"
    INDEX 01 02:12:58
  TRACK 73 AUDIO
    TITLE "12:cjc040_0248"
    INDEX 01 02:13:36
  TRACK 74 AUDIO
    TITLE "0:"
    INDEX 01 02:14:67
  TRACK 75 AUDIO
    TITLE "13:cjc040_0249"
    INDEX 01 02:15:43
  TRACK 76 AUDIO
    TITLE "0:"
    INDEX 01 02:18:39
  TRACK 77 AUDIO
    TITLE "14:cjc040_0250"
    INDEX 01 02:19:15
  TRACK 78 AUDIO
    TITLE "0:"
    INDEX 01 02:25:49
  TRACK 79 AUDIO
    TITLE "12:cjc040_0251"
    INDEX 01 02:26:25
  TRACK 80 AUDIO
    TITLE "0:"
    INDEX 01 02:27:69
  TRACK 81 AUDIO
    TITLE "13:cjc040_0252"
    INDEX 01 02:28:49
  TRACK 82 AUDIO
    TITLE "0:"
    INDEX 01 02:30:07
  TRACK 83 AUDIO
    TITLE "14:cjc040_0253"
    INDEX 01 02:30:60
  TRACK 84 AUDIO
    TITLE "0:"
    INDEX 01 02:34:52
